<?xml version="1.0" standalone="no"?>
<!DOCTYPE svg PUBLIC "-//W3C//DTD SVG 20010904//EN"
 "http://www.w3.org/TR/2001/REC-SVG-20010904/DTD/svg10.dtd">
<svg version="1.0" xmlns="http://www.w3.org/2000/svg"
 width="1280.000000pt" height="1132.000000pt" viewBox="0 0 1280.000000 1132.000000"
 preserveAspectRatio="xMidYMid meet">
<metadata>
Created by potrace 1.15, written by Peter Selinger 2001-2017
</metadata>
<g transform="translate(0.000000,1132.000000) scale(0.100000,-0.100000)"
fill="#000000" stroke="none">
<path d="M8370 9524 c-743 -50 -1460 -564 -2384 -1709 -75 -93 -141 -170 -146
-170 -5 0 -15 -6 -22 -14 -10 -10 -10 -12 0 -7 6 4 12 4 12 1 0 -8 -130 -175
-136 -175 -3 0 23 37 58 83 70 92 80 98 -147 -88 -81 -66 -156 -127 -168 -135
-12 -8 -31 -25 -42 -37 -11 -13 -25 -23 -29 -23 -12 0 -126 -118 -126 -130 0
-5 -4 -9 -9 -7 -10 2 -51 -41 -51 -55 0 -5 -6 -6 -12 -2 -7 4 -4 -3 7 -17 57
-71 52 -67 -34 25 -698 747 -1189 1076 -1606 1078 -72 0 -132 -5 -175 -16
-300 -78 -524 -351 -691 -841 -21 -60 -38 -103 -38 -95 0 8 15 60 34 115 49
145 43 138 -36 -40 -88 -200 -173 -542 -219 -880 -24 -177 -39 -310 -50 -425
-6 -69 -15 -169 -21 -223 -16 -168 -12 -428 8 -505 l18 -67 5 75 4 75 6 -110
5 -109 113 -30 c62 -16 110 -31 108 -33 -2 -2 -41 5 -86 17 -45 12 -85 19 -88
16 -3 -4 0 -6 7 -6 7 0 31 -13 54 -28 126 -85 405 -133 759 -131 l183 2 -115
9 c-63 4 -158 15 -210 23 -100 15 -77 14 135 -6 117 -11 438 -13 536 -3 l68 6
47 -93 c306 -612 870 -1237 1758 -1949 l168 -135 -6 -65 c-3 -36 -6 -86 -6
-112 0 -27 -4 -48 -9 -48 -5 0 -75 63 -155 140 -204 195 -261 230 -369 230
-60 0 -114 -24 -176 -78 l-45 -38 12 -67 c15 -92 51 -167 111 -230 l51 -54
-108 24 -108 24 -72 69 c-303 291 -685 371 -1007 210 -126 -63 -119 -50 -90
-166 85 -337 337 -553 661 -565 109 -4 355 11 529 32 269 32 338 38 383 29 61
-11 68 -21 52 -70 -18 -56 -32 -65 -69 -46 -51 27 -138 21 -209 -14 -118 -60
-292 -248 -292 -317 0 -75 43 -103 169 -111 64 -4 98 -12 135 -30 62 -31 169
-35 229 -9 21 9 35 12 32 7 -3 -5 -24 -15 -46 -22 l-41 -12 79 -37 c43 -21 86
-38 95 -39 9 0 19 -4 22 -9 3 -5 16 -11 28 -14 21 -5 48 -13 131 -36 173 -50
455 -102 712 -130 277 -31 372 -36 765 -35 450 0 595 9 985 64 39 5 99 10 135
11 62 2 61 2 -30 10 -139 12 -151 18 -25 12 230 -11 453 34 660 132 143 68
273 163 397 288 l58 58 44 -31 c53 -38 97 -49 151 -38 77 17 156 105 170 189
l7 40 69 -65 c134 -127 316 -236 461 -276 82 -23 224 -27 310 -9 119 25 247
108 316 206 l22 31 -56 17 c-32 9 -132 54 -223 100 l-166 84 61 0 c190 2 275
129 188 280 -64 108 -244 268 -338 297 l-59 19 64 12 c159 33 336 111 520 231
77 50 104 74 134 120 21 31 74 108 118 171 98 139 167 269 167 316 0 50 -35
86 -91 92 -85 10 -281 -54 -562 -184 l-119 -54 -88 12 c-160 23 -284 -19 -407
-135 l-70 -66 19 68 c37 135 34 307 -10 432 -11 33 -62 109 -147 220 -71 93
-133 169 -136 169 -4 1 -45 -61 -92 -136 -60 -97 -99 -147 -127 -168 -79 -57
-148 -161 -169 -255 -15 -66 -13 -151 8 -285 10 -66 18 -121 16 -123 -4 -5
-148 225 -177 283 -29 56 -22 -61 -69 1235 -11 311 -26 727 -33 925 -8 198
-13 361 -12 362 0 0 132 6 291 12 506 20 836 56 1202 131 429 88 788 222 1080
404 144 90 139 63 48 217 -279 478 -593 954 -863 1309 -784 1031 -1506 1555
-2233 1620 -110 9 -142 10 -239 4z m-5756 -2418 c-3 -15 -8 -25 -11 -23 -2 3
-1 17 3 31 3 15 8 25 11 23 2 -3 1 -17 -3 -31z m-25 -100 c-7 -31 -14 -54 -16
-52 -3 3 1 30 8 60 7 31 14 54 16 52 3 -3 -1 -30 -8 -60z m-28 -112 c-5 -21
-9 -30 -10 -19 -1 24 10 67 15 62 3 -2 0 -22 -5 -43z m-14 -66 c-3 -8 -6 -5
-6 6 -1 11 2 17 5 13 3 -3 4 -12 1 -19z m-10 -55 c-3 -10 -5 -4 -5 12 0 17 2
24 5 18 2 -7 2 -21 0 -30z m-10 -45 c-3 -8 -6 -5 -6 6 -1 11 2 17 5 13 3 -3 4
-12 1 -19z m-10 -65 c-3 -10 -5 -2 -5 17 0 19 2 27 5 18 2 -10 2 -26 0 -35z
m-10 -55 c-3 -7 -5 -2 -5 12 0 14 2 19 5 13 2 -7 2 -19 0 -25z m-10 -55 c-3
-10 -5 -4 -5 12 0 17 2 24 5 18 2 -7 2 -21 0 -30z m-10 -65 c-3 -7 -5 -2 -5
12 0 14 2 19 5 13 2 -7 2 -19 0 -25z m-10 -65 c-3 -10 -5 -4 -5 12 0 17 2 24
5 18 2 -7 2 -21 0 -30z m-10 -80 c-3 -10 -5 -4 -5 12 0 17 2 24 5 18 2 -7 2
-21 0 -30z m-10 -70 c-3 -10 -5 -4 -5 12 0 17 2 24 5 18 2 -7 2 -21 0 -30z
m-10 -90 c-3 -10 -5 -4 -5 12 0 17 2 24 5 18 2 -7 2 -21 0 -30z m-10 -90 c-3
-10 -5 -4 -5 12 0 17 2 24 5 18 2 -7 2 -21 0 -30z m-10 -110 c-3 -10 -5 -2 -5
17 0 19 2 27 5 18 2 -10 2 -26 0 -35z m3294 -70 c-63 -70 -68 -79 -51 -87 11
-5 22 -16 25 -25 3 -9 24 -23 47 -31 32 -11 48 -24 60 -50 17 -33 18 -33 19
-10 2 23 2 24 6 3 3 -14 14 -25 29 -28 24 -5 69 -16 89 -21 6 -1 19 -4 30 -6
11 -2 26 -7 33 -11 6 -5 16 -6 21 -3 5 3 12 -2 15 -11 6 -15 9 -15 16 -3 7 12
20 12 72 3 46 -8 67 -7 77 1 12 9 13 8 6 -4 -6 -10 -2 -9 12 3 16 14 22 15 26
5 4 -8 6 -7 6 5 1 12 9 17 28 17 14 0 35 7 45 17 17 15 18 15 18 -1 0 -16 1
-16 17 -1 9 10 26 15 39 12 13 -2 25 0 26 5 3 8 37 18 66 20 6 1 12 8 12 16 0
10 8 13 30 10 17 -3 30 -1 30 3 0 11 48 17 59 7 6 -4 8 -5 6 -1 -3 4 16 12 42
19 36 9 50 9 55 1 6 -9 8 -8 8 2 0 8 7 11 20 8 11 -3 20 0 20 5 0 6 6 5 15 -2
12 -10 16 -9 20 2 5 12 48 13 263 11 373 -5 391 -6 401 -22 6 -9 13 11 22 59
7 41 14 69 16 64 2 -6 -17 -125 -41 -265 -25 -140 -106 -605 -181 -1034 -75
-429 -142 -809 -147 -845 -6 -36 -12 -67 -14 -69 -2 -2 -25 12 -51 32 -221
161 -424 201 -615 121 l-59 -25 -47 33 c-471 321 -951 728 -1234 1045 -100
112 -277 332 -278 345 0 3 30 23 67 44 221 123 450 302 693 541 96 95 177 172
178 173 2 0 -28 -35 -67 -77z m-3304 -35 c-2 -13 -4 -5 -4 17 -1 22 1 32 4 23
2 -10 2 -28 0 -40z m-10 -140 c-2 -13 -4 -5 -4 17 -1 22 1 32 4 23 2 -10 2
-28 0 -40z m-10 -130 c-2 -13 -4 -5 -4 17 -1 22 1 32 4 23 2 -10 2 -28 0 -40z
m-10 -220 c-2 -18 -4 -6 -4 27 0 33 2 48 4 33 2 -15 2 -42 0 -60z m266 -365
c-7 -2 -19 -2 -25 0 -7 3 -2 5 12 5 14 0 19 -2 13 -5z m44 -9 c-3 -3 -12 -4
-19 -1 -8 3 -5 6 6 6 11 1 17 -2 13 -5z m46 -11 c-7 -2 -19 -2 -25 0 -7 3 -2
5 12 5 14 0 19 -2 13 -5z m44 -9 c-3 -3 -12 -4 -19 -1 -8 3 -5 6 6 6 11 1 17
-2 13 -5z m56 -11 c-7 -2 -21 -2 -30 0 -10 3 -4 5 12 5 17 0 24 -2 18 -5z m44
-9 c-3 -3 -12 -4 -19 -1 -8 3 -5 6 6 6 11 1 17 -2 13 -5z m61 -11 c-10 -2 -26
-2 -35 0 -10 3 -2 5 17 5 19 0 27 -2 18 -5z m55 -10 c-7 -2 -19 -2 -25 0 -7 3
-2 5 12 5 14 0 19 -2 13 -5z m7047 -2619 c0 -6 13 -38 30 -70 16 -32 30 -60
30 -61 0 -3 -208 125 -238 147 -22 15 -22 15 20 69 l42 53 58 -63 c31 -35 57
-69 58 -75z m-4510 -778 c0 -3 -15 -14 -32 -26 l-33 -22 30 26 c31 27 35 29
35 22z m2603 -283 c-7 -2 -19 -2 -25 0 -7 3 -2 5 12 5 14 0 19 -2 13 -5z"/>
<path d="M2726 7495 c-9 -26 -7 -32 5 -12 6 10 9 21 6 23 -2 3 -7 -2 -11 -11z"/>
<path d="M9988 5863 c7 -3 16 -2 19 1 4 3 -2 6 -13 5 -11 0 -14 -3 -6 -6z"/>
<path d="M9918 5853 c6 -2 18 -2 25 0 6 3 1 5 -13 5 -14 0 -19 -2 -12 -5z"/>
<path d="M9768 5843 c12 -2 30 -2 40 0 9 3 -1 5 -23 4 -22 0 -30 -2 -17 -4z"/>
<path d="M9633 5833 c15 -2 39 -2 55 0 15 2 2 4 -28 4 -30 0 -43 -2 -27 -4z"/>
<path d="M9183 5823 c-51 -2 -93 -7 -93 -11 1 -37 41 -39 265 -12 189 24 197
27 55 27 -74 -1 -177 -3 -227 -4z"/>
</g>
</svg>
